<?xml version="1.0" encoding="UTF-8"?><svg xmlns="http://www.w3.org/2000/svg" xmlns:xlink="http://www.w3.org/1999/xlink" contentScriptType="text/ecmascript" width="810" zoomAndPan="magnify" contentStyleType="text/css" viewBox="0 0 810 809.999993" height="809.999993" preserveAspectRatio="xMidYMid meet" version="1.0"><defs><clipPath id="clip-0"><path d="M 0 53.15625 L 810 53.15625 L 810 756.65625 L 0 756.65625 Z M 0 53.15625 " clip-rule="nonzero"/></clipPath></defs><rect x="-81" width="972" fill="rgb(100%, 100%, 100%)" y="-80.999999" height="971.999992" fill-opacity="1"/><rect x="-81" width="972" fill="rgb(100%, 100%, 100%)" y="-80.999999" height="971.999992" fill-opacity="1"/><rect x="-81" width="972" fill="rgb(0%, 76.078796%, 79.60968%)" y="-80.999999" height="971.999992" fill-opacity="1"/><g clip-path="url(#clip-0)"><path fill="rgb(100%, 100%, 100%)" d="M 17.972656 53.15625 C 8.242188 53.15625 0.378906 61.019531 0.378906 70.742188 L 0.378906 563.195312 C 0.378906 572.917969 8.242188 580.78125 17.972656 580.78125 L 616.105469 580.78125 C 625.835938 580.78125 633.699219 572.917969 633.699219 563.195312 L 633.699219 70.742188 C 633.699219 61.019531 625.835938 53.15625 616.105469 53.15625 Z M 35.5625 88.332031 L 598.515625 88.332031 L 598.515625 380.035156 L 505.398438 286.945312 C 498.765625 280.316406 488.261719 280.242188 481.347656 286.398438 L 350.367188 417.339844 C 346.9375 420.769531 342.414062 422.492188 337.929688 422.492188 C 333.445312 422.492188 328.921875 420.769531 325.492188 417.339844 C 318.613281 410.464844 318.613281 399.347656 325.492188 392.472656 L 381.910156 336.101562 L 224.472656 164.382812 C 217.894531 157.242188 206.808594 156.726562 199.667969 163.25 L 35.5625 312.367188 Z M 492.960938 141.09375 C 491.808594 141.09375 490.660156 141.148438 489.511719 141.261719 C 488.367188 141.375 487.226562 141.542969 486.097656 141.769531 C 484.964844 141.996094 483.851562 142.273438 482.746094 142.609375 C 481.644531 142.941406 480.5625 143.332031 479.496094 143.769531 C 478.433594 144.210938 477.390625 144.703125 476.375 145.246094 C 475.359375 145.789062 474.371094 146.382812 473.414062 147.023438 C 472.457031 147.660156 471.53125 148.347656 470.640625 149.078125 C 469.75 149.808594 468.898438 150.582031 468.082031 151.394531 C 467.265625 152.210938 466.492188 153.0625 465.761719 153.953125 C 465.03125 154.84375 464.347656 155.769531 463.707031 156.726562 C 463.066406 157.683594 462.472656 158.671875 461.929688 159.6875 C 461.386719 160.703125 460.894531 161.742188 460.453125 162.808594 C 460.015625 163.871094 459.625 164.957031 459.292969 166.058594 C 458.957031 167.160156 458.675781 168.277344 458.453125 169.40625 C 458.226562 170.535156 458.058594 171.675781 457.945312 172.820312 C 457.832031 173.96875 457.777344 175.117188 457.777344 176.269531 C 457.777344 177.421875 457.832031 178.570312 457.945312 179.714844 C 458.058594 180.863281 458.226562 182 458.453125 183.132812 C 458.675781 184.261719 458.957031 185.378906 459.292969 186.480469 C 459.625 187.582031 460.015625 188.664062 460.453125 189.730469 C 460.894531 190.792969 461.386719 191.835938 461.929688 192.851562 C 462.472656 193.867188 463.066406 194.851562 463.707031 195.8125 C 464.347656 196.769531 465.03125 197.691406 465.761719 198.582031 C 466.492188 199.472656 467.265625 200.328125 468.082031 201.140625 C 468.898438 201.957031 469.75 202.730469 470.640625 203.460938 C 471.53125 204.191406 472.457031 204.875 473.414062 205.515625 C 474.371094 206.15625 475.359375 206.746094 476.375 207.289062 C 477.390625 207.832031 478.433594 208.324219 479.496094 208.765625 C 480.5625 209.207031 481.644531 209.59375 482.746094 209.929688 C 483.851562 210.261719 484.964844 210.542969 486.097656 210.769531 C 487.226562 210.992188 488.367188 211.160156 489.511719 211.273438 C 490.660156 211.386719 491.808594 211.445312 492.960938 211.445312 C 494.113281 211.445312 495.261719 211.386719 496.410156 211.273438 C 497.554688 211.160156 498.695312 210.992188 499.824219 210.769531 C 500.957031 210.542969 502.070312 210.261719 503.175781 209.929688 C 504.277344 209.59375 505.359375 209.207031 506.425781 208.765625 C 507.488281 208.324219 508.53125 207.832031 509.546875 207.289062 C 510.5625 206.746094 511.550781 206.15625 512.507812 205.515625 C 513.464844 204.875 514.390625 204.191406 515.28125 203.460938 C 516.171875 202.730469 517.023438 201.957031 517.839844 201.140625 C 518.65625 200.328125 519.429688 199.472656 520.160156 198.582031 C 520.890625 197.691406 521.574219 196.769531 522.214844 195.8125 C 522.855469 194.851562 523.449219 193.867188 523.992188 192.851562 C 524.535156 191.835938 525.027344 190.792969 525.46875 189.730469 C 525.90625 188.664062 526.296875 187.582031 526.628906 186.480469 C 526.964844 185.378906 527.246094 184.261719 527.46875 183.132812 C 527.695312 182 527.863281 180.863281 527.976562 179.714844 C 528.089844 178.570312 528.144531 177.421875 528.144531 176.269531 C 528.144531 175.117188 528.089844 173.96875 527.976562 172.820312 C 527.863281 171.675781 527.695312 170.535156 527.46875 169.40625 C 527.246094 168.277344 526.964844 167.160156 526.628906 166.058594 C 526.296875 164.957031 525.90625 163.871094 525.46875 162.808594 C 525.027344 161.742188 524.535156 160.703125 523.992188 159.6875 C 523.449219 158.671875 522.855469 157.683594 522.214844 156.726562 C 521.574219 155.769531 520.890625 154.84375 520.160156 153.953125 C 519.429688 153.0625 518.65625 152.210938 517.839844 151.394531 C 517.023438 150.582031 516.171875 149.808594 515.28125 149.078125 C 514.390625 148.347656 513.464844 147.660156 512.507812 147.023438 C 511.550781 146.382812 510.5625 145.789062 509.546875 145.246094 C 508.53125 144.703125 507.488281 144.210938 506.425781 143.769531 C 505.359375 143.332031 504.277344 142.941406 503.175781 142.609375 C 502.070312 142.273438 500.957031 141.996094 499.824219 141.769531 C 498.695312 141.542969 497.554688 141.375 496.410156 141.261719 C 495.261719 141.148438 494.113281 141.09375 492.960938 141.09375 Z M 668.882812 141.09375 L 668.882812 176.269531 L 686.476562 176.269531 L 686.476562 633.542969 L 123.523438 633.542969 L 123.523438 615.957031 L 88.339844 615.957031 L 88.339844 651.132812 C 88.339844 651.707031 88.367188 652.28125 88.425781 652.855469 C 88.480469 653.429688 88.566406 653.996094 88.679688 654.5625 C 88.792969 655.128906 88.929688 655.6875 89.097656 656.238281 C 89.265625 656.789062 89.460938 657.328125 89.679688 657.863281 C 89.902344 658.394531 90.148438 658.914062 90.417969 659.421875 C 90.691406 659.929688 90.988281 660.421875 91.308594 660.902344 C 91.625 661.382812 91.96875 661.84375 92.335938 662.289062 C 92.699219 662.734375 93.085938 663.160156 93.496094 663.566406 C 93.902344 663.976562 94.328125 664.359375 94.773438 664.726562 C 95.21875 665.09375 95.679688 665.433594 96.160156 665.753906 C 96.640625 666.074219 97.132812 666.371094 97.640625 666.640625 C 98.148438 666.914062 98.667969 667.160156 99.203125 667.378906 C 99.734375 667.601562 100.273438 667.792969 100.828125 667.960938 C 101.378906 668.128906 101.9375 668.269531 102.5 668.378906 C 103.066406 668.492188 103.636719 668.578125 104.207031 668.632812 C 104.78125 668.691406 105.355469 668.71875 105.933594 668.71875 L 704.066406 668.71875 C 704.644531 668.71875 705.21875 668.691406 705.792969 668.632812 C 706.363281 668.578125 706.933594 668.492188 707.5 668.378906 C 708.0625 668.269531 708.621094 668.128906 709.175781 667.960938 C 709.726562 667.792969 710.265625 667.597656 710.800781 667.378906 C 711.332031 667.160156 711.851562 666.914062 712.359375 666.640625 C 712.867188 666.371094 713.363281 666.074219 713.839844 665.753906 C 714.320312 665.433594 714.78125 665.089844 715.226562 664.726562 C 715.671875 664.359375 716.097656 663.972656 716.507812 663.566406 C 716.914062 663.160156 717.300781 662.734375 717.667969 662.289062 C 718.03125 661.84375 718.375 661.378906 718.695312 660.902344 C 719.015625 660.421875 719.3125 659.929688 719.582031 659.421875 C 719.855469 658.914062 720.101562 658.394531 720.320312 657.859375 C 720.539062 657.328125 720.734375 656.785156 720.902344 656.234375 C 721.070312 655.683594 721.207031 655.125 721.320312 654.5625 C 721.433594 653.996094 721.519531 653.429688 721.574219 652.855469 C 721.632812 652.28125 721.660156 651.707031 721.660156 651.132812 L 721.660156 158.679688 C 721.660156 158.105469 721.628906 157.53125 721.574219 156.957031 C 721.519531 156.382812 721.433594 155.816406 721.320312 155.25 C 721.207031 154.683594 721.066406 154.125 720.902344 153.574219 C 720.734375 153.023438 720.539062 152.484375 720.320312 151.949219 C 720.097656 151.417969 719.851562 150.898438 719.582031 150.390625 C 719.308594 149.882812 719.011719 149.390625 718.691406 148.910156 C 718.375 148.429688 718.03125 147.96875 717.664062 147.523438 C 717.300781 147.078125 716.914062 146.652344 716.503906 146.246094 C 716.097656 145.835938 715.671875 145.449219 715.226562 145.085938 C 714.78125 144.71875 714.320312 144.378906 713.839844 144.058594 C 713.359375 143.738281 712.867188 143.441406 712.359375 143.171875 C 711.851562 142.898438 711.332031 142.652344 710.796875 142.433594 C 710.265625 142.210938 709.722656 142.019531 709.171875 141.851562 C 708.621094 141.683594 708.0625 141.542969 707.5 141.433594 C 706.933594 141.320312 706.363281 141.234375 705.792969 141.179688 C 705.21875 141.121094 704.644531 141.09375 704.066406 141.09375 Z M 756.84375 229.03125 L 756.84375 264.207031 L 774.4375 264.207031 L 774.4375 721.480469 L 211.484375 721.480469 L 211.484375 703.894531 L 176.300781 703.894531 L 176.300781 739.070312 C 176.300781 739.644531 176.328125 740.21875 176.386719 740.792969 C 176.441406 741.367188 176.527344 741.933594 176.640625 742.5 C 176.753906 743.066406 176.890625 743.621094 177.058594 744.175781 C 177.226562 744.726562 177.421875 745.265625 177.640625 745.800781 C 177.863281 746.332031 178.109375 746.851562 178.378906 747.359375 C 178.652344 747.867188 178.949219 748.359375 179.265625 748.839844 C 179.585938 749.320312 179.929688 749.78125 180.296875 750.226562 C 180.660156 750.671875 181.046875 751.097656 181.457031 751.503906 C 181.863281 751.914062 182.289062 752.296875 182.734375 752.664062 C 183.179688 753.03125 183.640625 753.371094 184.121094 753.691406 C 184.601562 754.011719 185.09375 754.308594 185.601562 754.578125 C 186.109375 754.851562 186.628906 755.097656 187.164062 755.316406 C 187.695312 755.539062 188.234375 755.730469 188.789062 755.898438 C 189.339844 756.066406 189.898438 756.207031 190.460938 756.316406 C 191.027344 756.429688 191.597656 756.515625 192.167969 756.570312 C 192.742188 756.628906 193.316406 756.65625 193.894531 756.65625 L 792.027344 756.65625 C 792.605469 756.65625 793.179688 756.628906 793.753906 756.570312 C 794.324219 756.515625 794.894531 756.429688 795.460938 756.316406 C 796.023438 756.207031 796.582031 756.066406 797.136719 755.898438 C 797.6875 755.730469 798.226562 755.535156 798.761719 755.316406 C 799.292969 755.097656 799.8125 754.851562 800.320312 754.578125 C 800.828125 754.308594 801.324219 754.011719 801.800781 753.691406 C 802.28125 753.371094 802.742188 753.027344 803.1875 752.664062 C 803.632812 752.296875 804.058594 751.910156 804.46875 751.503906 C 804.875 751.097656 805.261719 750.671875 805.628906 750.226562 C 805.992188 749.78125 806.335938 749.316406 806.65625 748.839844 C 806.976562 748.359375 807.269531 747.867188 807.542969 747.359375 C 807.816406 746.851562 808.0625 746.332031 808.28125 745.796875 C 808.5 745.265625 808.695312 744.726562 808.863281 744.171875 C 809.03125 743.621094 809.167969 743.0625 809.28125 742.5 C 809.394531 741.933594 809.480469 741.367188 809.535156 740.792969 C 809.59375 740.21875 809.621094 739.644531 809.621094 739.070312 L 809.621094 246.617188 C 809.621094 246.042969 809.589844 245.46875 809.535156 244.894531 C 809.480469 244.320312 809.394531 243.753906 809.28125 243.1875 C 809.167969 242.621094 809.027344 242.0625 808.863281 241.511719 C 808.695312 240.960938 808.5 240.421875 808.28125 239.886719 C 808.058594 239.355469 807.8125 238.835938 807.542969 238.328125 C 807.269531 237.820312 806.972656 237.328125 806.652344 236.847656 C 806.335938 236.367188 805.992188 235.90625 805.625 235.460938 C 805.261719 235.015625 804.875 234.589844 804.464844 234.183594 C 804.058594 233.773438 803.632812 233.386719 803.1875 233.023438 C 802.742188 232.65625 802.28125 232.316406 801.800781 231.996094 C 801.320312 231.675781 800.828125 231.378906 800.320312 231.109375 C 799.8125 230.835938 799.292969 230.589844 798.757812 230.371094 C 798.226562 230.148438 797.683594 229.957031 797.132812 229.789062 C 796.582031 229.621094 796.023438 229.480469 795.460938 229.371094 C 794.894531 229.257812 794.324219 229.171875 793.753906 229.117188 C 793.179688 229.058594 792.605469 229.03125 792.027344 229.03125 Z M 756.84375 229.03125 " fill-opacity="1" fill-rule="nonzero"/></g></svg>