<?xml version="1.0" encoding="UTF-8"?><svg xmlns="http://www.w3.org/2000/svg" xmlns:xlink="http://www.w3.org/1999/xlink" contentScriptType="text/ecmascript" width="810" zoomAndPan="magnify" contentStyleType="text/css" viewBox="0 0 810 809.999993" height="809.999993" preserveAspectRatio="xMidYMid meet" version="1.0"><defs><clipPath id="clip-0"><path d="M 6 111 L 784 111 L 784 775.179688 L 6 775.179688 Z M 6 111 " clip-rule="nonzero"/></clipPath></defs><rect x="-81" width="972" fill="rgb(100%, 100%, 100%)" y="-80.999999" height="971.999992" fill-opacity="1"/><rect x="-81" width="972" fill="rgb(0%, 76.078796%, 79.60968%)" y="-80.999999" height="971.999992" fill-opacity="1"/><path fill="rgb(100%, 100%, 100%)" d="M 351.433594 154.035156 C 356.304688 158.921875 360.222656 164.496094 363.207031 170.5 L 375.050781 166.195312 C 362.96875 140.707031 337.101562 123.019531 307.011719 122.980469 C 306.964844 122.980469 306.921875 122.980469 306.875 122.980469 L 306.996094 135.558594 C 323.792969 135.578125 339.574219 142.144531 351.433594 154.035156 Z M 351.433594 154.035156 " fill-opacity="1" fill-rule="nonzero"/><path fill="rgb(100%, 100%, 100%)" d="M 306.875 135.558594 L 306.875 122.980469 C 265.253906 122.980469 231.5 156.707031 231.441406 198.34375 C 231.433594 204.964844 232.359375 211.351562 233.953125 217.46875 L 245.8125 213.164062 C 244.667969 208.367188 244.011719 203.414062 244.019531 198.359375 C 244.066406 163.734375 272.261719 135.558594 306.875 135.558594 Z M 306.875 135.558594 " fill-opacity="1" fill-rule="nonzero"/><path fill="rgb(100%, 100%, 100%)" d="M 721.183594 270.527344 L 784.453125 192.851562 L 784.726562 446.09375 L 803.550781 498.089844 C 807.597656 490.835938 809.921875 482.507812 809.910156 473.660156 L 809.492188 85.246094 C 809.460938 58.109375 787.664062 35.925781 760.742188 35.117188 L 181.136719 36.34375 C 153.46875 36.40625 130.855469 59.09375 130.886719 86.769531 L 131.070312 254.855469 L 156.210938 245.722656 L 156.039062 86.738281 C 156.023438 72.851562 167.308594 61.53125 181.191406 61.5 L 759.242188 60.199219 C 773.066406 60.199219 784.320312 71.445312 784.335938 85.269531 L 784.433594 172.957031 L 716.195312 256.738281 Z M 721.183594 270.527344 " fill-opacity="1" fill-rule="nonzero"/><g clip-path="url(#clip-0)"><path fill="rgb(100%, 100%, 100%)" d="M 206.199219 772.46875 L 750.109375 574.820312 C 776.113281 565.375 789.683594 536.355469 780.265625 510.332031 L 648.085938 145.136719 C 640.703125 124.730469 621.292969 111.992188 600.71875 111.992188 C 595.050781 111.992188 589.296875 112.964844 583.679688 115.003906 L 39.769531 312.648438 C 13.765625 322.09375 0.195312 351.117188 9.609375 377.136719 L 141.792969 742.335938 C 149.171875 762.738281 168.585938 775.476562 189.15625 775.476562 C 194.820312 775.476562 200.582031 774.507812 206.199219 772.46875 Z M 756.613281 518.894531 C 761.339844 531.953125 754.570312 546.433594 741.519531 551.175781 L 284.476562 717.257812 L 401.964844 414.230469 L 585.042969 481.828125 L 663.246094 260.933594 Z M 165.445312 733.773438 L 33.261719 368.578125 C 28.539062 355.519531 35.308594 341.035156 48.359375 336.296875 L 592.269531 138.648438 C 595 137.65625 597.847656 137.152344 600.722656 137.152344 C 611.324219 137.152344 620.855469 143.800781 624.433594 153.695312 L 656.5 242.292969 L 577.441406 465.613281 L 394.710938 398.136719 L 268.777344 722.957031 L 197.609375 748.820312 C 194.878906 749.816406 192.035156 750.320312 189.15625 750.320312 C 178.554688 750.320312 169.023438 743.667969 165.445312 733.773438 Z M 165.445312 733.773438 " fill-opacity="1" fill-rule="nonzero"/></g><path fill="rgb(100%, 100%, 100%)" d="M 238.304688 495.792969 C 277.464844 481.59375 297.703125 438.320312 283.496094 399.144531 C 272.375 368.464844 243.429688 349.394531 212.585938 349.394531 C 204.046875 349.394531 195.355469 350.859375 186.863281 353.941406 C 147.691406 368.140625 127.457031 411.417969 141.660156 450.589844 C 152.785156 481.273438 181.726562 500.339844 212.574219 500.339844 C 221.117188 500.339844 229.808594 498.878906 238.304688 495.792969 Z M 153.484375 446.300781 C 147.757812 430.511719 148.523438 413.445312 155.636719 398.230469 C 162.75 383.015625 175.363281 371.488281 191.152344 365.765625 C 198.082031 363.25 205.292969 361.972656 212.585938 361.972656 C 238.9375 361.972656 262.683594 378.636719 271.671875 403.433594 C 277.398438 419.222656 276.632812 436.292969 269.523438 451.503906 C 262.410156 466.71875 249.800781 478.246094 234.015625 483.972656 C 227.082031 486.484375 219.867188 487.761719 212.574219 487.761719 C 186.222656 487.761719 162.472656 471.097656 153.484375 446.300781 Z M 153.484375 446.300781 " fill-opacity="1" fill-rule="nonzero"/></svg>